<svg xmlns="http://www.w3.org/2000/svg" xmlns:xlink="http://www.w3.org/1999/xlink" aria-hidden="true" focusable="false" width="24px" height="24px" style="vertical-align: -0.125em;-ms-transform: rotate(360deg); -webkit-transform: rotate(360deg); transform: rotate(360deg);" preserveAspectRatio="xMidYMid meet" viewBox="0 0 24 24" class="iconify" data-icon="mdi:file-replace" data-width="24px" data-height="24px"><path d="M14 12h5.5L14 6.5V12M8 5h7l6 6v10a2 2 0 0 1-2 2H8a2 2 0 0 1-2-2v-3h5v2l4-3l-4-3v2H6V7a2 2 0 0 1 2-2m5.5-2H4v13h2v2H4a2 2 0 0 1-2-2V3a2 2 0 0 1 2-2h7.5l2 2z" fill="currentColor"></path></svg>