<svg xmlns="http://www.w3.org/2000/svg" xmlns:xlink="http://www.w3.org/1999/xlink" aria-hidden="true" focusable="false" width="24px" height="24px" style="vertical-align: -0.125em;-ms-transform: rotate(360deg); -webkit-transform: rotate(360deg); transform: rotate(360deg);" preserveAspectRatio="xMidYMid meet" viewBox="0 0 24 24" class="iconify" data-icon="mdi:file-remove" data-width="24px" data-height="24px"><path d="M6 2h8l6 6v12a2 2 0 0 1-2 2H6a2 2 0 0 1-2-2V4c0-1.11.89-2 2-2m7 7h5.5L13 3.5V9m-3 5.59l-2.12-2.13l-1.42 1.42L8.59 16l-2.13 2.12l1.42 1.42L10 17.41l2.12 2.13l1.42-1.42L11.41 16l2.13-2.12l-1.42-1.42L10 14.59z" fill="currentColor"></path></svg>