<svg version="1" xmlns="http://www.w3.org/2000/svg" width="744" height="744" viewBox="0 0 558.000000 558.000000"><path d="M0 279v279h558V0H0v279zm246.3-86.6c11.7 5 14.4 21 5.1 29.8C239.8 233 221 224.8 221 209c0-10.2 7.6-17.9 17.8-18 2.3 0 5.7.6 7.5 1.4zm74.7 13.7c10.5 5.9 10.5 21.9 0 27.8-14.1 7.9-29.8-7.8-21.9-21.9 4.2-7.5 14.2-10.2 21.9-5.9zm-11.4 35c17 7.2 31.5 13.6 32.2 14.1.9.8 1.2 10.3 1.2 41.3 0 31-.3 40.5-1.2 41.2-1.7 1.4-59.8 28.3-61 28.3-1.3 0-63-26-64.5-27.3-1-.7-1.3-10.1-1.3-40.6 0-21.8.4-40.1.8-40.7.4-.6 7.8-4.4 16.5-8.5 9-4.1 15.7-7.9 15.7-8.6 0-2.8 3.2-7.4 6.3-9.3 3.6-2.2 8.5-2.5 13.2-.9 2.5.9 3.7.9 6.1-.4 1.6-.9 3.4-1.6 4-1.7.5 0 14.9 5.9 32 13.1zM123 418c2.9 3.3 5.5 6 5.8 5.9.4 0 2.9-2.7 5.5-6 4.3-5.2 5.3-5.9 8.4-5.9h3.5l-5.3 6.2c-2.9 3.5-6.1 7.2-7.1 8.3-1.7 2-1.6 2.3 5.3 10.3l7 8.2h-3.5c-2.9 0-4.1-.8-8.7-6.1l-5.3-6.1-5.5 6.2c-4.7 5.2-6 6.1-8.4 5.8l-2.9-.3 6.6-7.7c3.6-4.2 6.6-7.9 6.6-8.2 0-.3-2.6-3.6-5.8-7.3-7.8-9.2-7.9-9.3-4.4-9.3 2.4 0 4 1.2 8.2 6zm56.5-3.5c2.4 2.3 2.5 3 2.5 14s-.1 11.7-2.5 14c-2.3 2.4-3 2.5-13.7 2.5-15.7-.1-16.8-1.2-16.8-17 0-9.9.1-10.2 2.9-13.1 2.9-2.9 3.1-2.9 14.1-2.9 10.4 0 11.2.1 13.5 2.5zm38 0c2.4 2.3 2.5 3 2.5 14s-.1 11.7-2.5 14c-2.3 2.4-3 2.5-13.9 2.5h-11.4l-2.6-3.1c-2.4-2.9-2.6-3.7-2.6-13.6 0-10.2.1-10.5 2.9-13.4 2.9-2.9 3.1-2.9 14.1-2.9 10.4 0 11.2.1 13.5 2.5zm38 0c3.4 3.3 3.6 12.7.3 16.2-2 2.2-2.9 2.3-14 2.3H230v6c0 5.7-.1 6-2.5 6H225v-33h14c13.6 0 14.2.1 16.5 2.5zm40.5 0v2.5h-12.8c-13.4 0-15.2.5-15.2 4.5 0 3.8 1.9 4.5 11.7 4.5 13.5 0 16.3 1.8 16.3 10.1 0 2.9-.7 4.7-2.5 6.4-2.3 2.4-2.9 2.5-16.5 2.5h-14v-4.9l13.8-.3 13.7-.3v-8l-11.3-.5c-10.9-.5-11.5-.6-13.8-3.3-3.4-4-3.2-9 .5-12.8l2.9-2.9H296v2.5zm57 0v2.5h-12.8c-8.6 0-13.2.4-14 1.2-1.3 1.3-1.7 17.3-.6 20.2.5 1.4 2.7 1.6 14 1.6H353v5h-27.8l-2.6-3.1c-2.4-2.9-2.6-3.7-2.6-13.6 0-10.2.1-10.5 2.9-13.4l2.9-2.9H353v2.5zm40 1.5v4h7c7.4 0 12.3 1.7 13.4 4.5.3.9.6 4.8.6 8.6 0 6.1-.3 7.3-2.5 9.4-2.3 2.3-3.1 2.5-13 2.5H388v-33h2.5c2.3 0 2.5.4 2.5 4zm-30 12.7c0 4.9.4 9.4.9 10.1.5.9 2.8 1.2 7.7 1l6.9-.3.5-9.5c.5-8.9.6-9.5 2.8-9.8 2.2-.3 2.2-.1 2.2 9.8 0 9.4-.2 10.3-2.5 12.5-2.1 2.2-3.3 2.5-10.4 2.5-7.6 0-8-.1-10.5-3.1-2.4-2.8-2.6-3.8-2.6-12.5 0-9.4 0-9.4 2.5-9.4s2.5.1 2.5 8.7zm76.9-7.2c3.5 1.7 4.1 3.2 4.1 9.6v4.9h-10.5c-5.8 0-10.5.4-10.5.8 0 2.3 3 3.2 10.7 3.2 8.2 0 8.3 0 8.3 2.5s0 2.5-9.2 2.5c-12.6-.1-14.8-2-14.8-13 0-5.5.3-6.5 2.9-9.1 2.7-2.6 3.6-2.9 9.6-2.9 3.8 0 7.8.6 9.4 1.5zM117 497v5h16v-5c0-4.3.3-5 2-5 1.9 0 2 .7 2 11.5s-.1 11.5-2 11.5c-1.7 0-2-.7-2-5v-5h-16v5c0 3.8-.4 5-1.5 5-1.2 0-1.5-1.9-1.5-11.5s.3-11.5 1.5-11.5c1.1 0 1.5 1.2 1.5 5zm47-3.5c0 1.1-1.2 1.5-5 1.5h-5v10c0 9.3-.1 10-2 10s-2-.7-2-10v-10h-4.5c-3.3 0-4.5-.4-4.5-1.5 0-1.2 1.9-1.5 11.5-1.5s11.5.3 11.5 1.5zm11.8 8.2c1.9 5.1 3.8 9.3 4.3 9.3.4 0 2.4-4.3 4.4-9.5 3.3-8.3 4-9.5 6.1-9.5 2.4 0 2.4 0 2.4 11.5 0 10.8-.1 11.5-2 11.5-1.8 0-2-.7-2.1-7.8v-7.7l-3.1 7.7c-2.8 7-3.4 7.8-5.7 7.8-2.4 0-3-.8-5.6-7.8l-3-7.7-.3 7.7c-.2 6-.6 7.8-1.7 7.8-1.2 0-1.5-2.1-1.5-11.6 0-11.2.1-11.5 2.2-11.2 1.7.2 2.8 2.2 5.6 9.5zm23.2-.9c0 5.5.4 9.2 1.2 10 .7.7 4.2 1.2 8.5 1.2 5.8 0 7.3.3 7.3 1.5s-1.6 1.5-8.2 1.5c-11.3 0-11.8-.5-11.8-13.2 0-8 .3-9.8 1.5-9.8s1.5 1.6 1.5 8.8zm40-7.3c0 1.2-1.6 1.5-8.5 1.5-8.4 0-8.5 0-8.5 2.5 0 2.4.2 2.5 7.2 2.5 8.7 0 10.8 1.4 10.8 7.3 0 6.6-1.8 7.7-12.2 7.7-7.2 0-8.8-.3-8.8-1.5s1.5-1.5 7.9-1.5c8.5 0 10.5-1 9.9-5.2-.3-2.2-.8-2.3-9-2.6l-8.8-.3V492h10c8.2 0 10 .3 10 1.5zm41 0c0 1.1-2 1.5-9.7 1.7-9.5.3-9.8.4-10.1 2.7-.5 3.3 1.2 4.1 9.2 4.1 8 0 10.6 1.6 10.6 6.3 0 5.6-2.1 6.7-13.2 6.7-7.9 0-9.8-.3-9.8-1.5 0-1.1 1.9-1.5 9.3-1.7l9.2-.3v-6l-7.5-.3c-8.8-.4-11-1.8-11-7.2 0-5.5 1.1-6 12.7-6 8.4 0 10.3.3 10.3 1.5zm7 1c0 2.2.4 2.5 4 2.5 3.3 0 4 .3 4 2s-.7 2-4 2h-4v4.3c0 5 1.3 6.7 5.2 6.7 1.8 0 2.8.5 2.8 1.5 0 2.1-6.8 2-9.2-.2-1.5-1.3-1.8-3.2-1.8-11.5 0-8 .3-9.8 1.5-9.8.9 0 1.5.9 1.5 2.5zm52 0c0 2.2.4 2.5 4 2.5 3.3 0 4 .3 4 2s-.7 2-4 2h-4v4.3c0 5 1.3 6.7 5.2 6.7 1.8 0 2.8.5 2.8 1.5 0 2.1-6.8 2-9.2-.2-1.5-1.3-1.8-3.2-1.8-11.5 0-8 .3-9.8 1.5-9.8.9 0 1.5.9 1.5 2.5zm65 4.6v7.1l7.9-7.1c9.5-8.5 14.4-10 6.3-1.8l-5.2 5.2 5.6 6.3c4.5 5.1 5.2 6.2 3.5 6.2-1.2 0-3.8-2.1-6.3-5-2.4-2.7-4.7-5-5.2-5-2 0-6.6 5.4-6.6 7.7 0 1.4-.6 2.3-1.5 2.3-1.2 0-1.5-1.9-1.5-11.5s.3-11.5 1.5-11.5 1.5 1.5 1.5 7.1zm26-5.6c0 .8-.7 1.5-1.5 1.5s-1.5-.7-1.5-1.5.7-1.5 1.5-1.5 1.5.7 1.5 1.5zm7 1c0 2.2.4 2.5 4 2.5 3.3 0 4 .3 4 2s-.7 2-4 2h-4v4.3c0 5 1.3 6.7 5.2 6.7 1.8 0 2.8.5 2.8 1.5 0 2.1-6.8 2-9.2-.2-1.5-1.3-1.8-3.2-1.8-11.5 0-8 .3-9.8 1.5-9.8.9 0 1.5.9 1.5 2.5zM317 506v9h-7.3c-9.5 0-10.9-1.3-10.5-9.6.3-5.1.6-6 2.8-7.1 1.4-.7 5.3-1.3 8.8-1.3h6.2v9zm15-7.1c0 1.6-.8 2-3.7 2.3l-3.8.3-.3 6.7c-.2 5.2-.6 6.8-1.8 6.8-1.2 0-1.4-1.4-1.2-7.7.3-7.1.5-7.9 2.8-9 3.9-2 8-1.7 8 .6zm34.4.2c1.9 1.5 2.6 3 2.6 5.5v3.4h-7.5c-4.1 0-7.5.4-7.5.8 0 2 2.8 3.2 7.7 3.2 4 0 5.3.4 5.3 1.5 0 1.2-1.4 1.5-6.3 1.5-8.4 0-9.9-1.5-9.5-9.6.3-5.1.6-6 2.8-7.1 3.8-1.9 9.4-1.6 12.4.8zm17.6-.2c0 1.6-.8 2-3.7 2.3l-3.8.3-.3 6.7c-.2 5.2-.6 6.8-1.8 6.8-1.2 0-1.4-1.4-1.2-7.7.3-7.1.5-7.9 2.8-9 3.9-2 8-1.7 8 .6zm46 7.1c0 7.3-.3 9-1.5 9s-1.5-1.7-1.5-9 .3-9 1.5-9 1.5 1.7 1.5 9z"/><path d="M274.1 233.9c-1 .6-1.1 1.3-.2 2.9 3 5.6 0 14.7-5.8 17.7-6.3 3.2-15.7.7-18.3-5-.6-1.4-1.5-2.5-2-2.5-1.7 0-23.7 10.4-23.3 11 .2.4 13 6 28.5 12.5l28 11.8 26.3-12.3c14.4-6.8 26.5-12.6 26.9-12.9.8-.7-54.4-24.1-56.9-24.1-1 0-2.4.4-3.2.9zm25 13c2 2 2.9 3.9 2.9 6.1 0 2.2-.9 4.1-2.9 6.1s-3.9 2.9-6.1 2.9c-4.3 0-9-4.7-9-9 0-2.2.9-4.1 2.9-6.1s3.9-2.9 6.1-2.9c2.2 0 4.1.9 6.1 2.9zm-13.9 18.8c2.2 2 2.3 6.1.1 8.5-3.4 3.8-10.3 1.1-10.3-4 0-5.4 6.2-8.1 10.2-4.5zM309.8 273.8L283 286.4v36.8c0 20.2.3 36.8.8 36.8 1 0 52.4-24 54-25.3.9-.7 1.2-9.4 1.2-37.3 0-28.5-.3-36.4-1.2-36.3-.7 0-13.3 5.8-28 12.7zM220.2 299l.3 37.2 28.3 12c15.6 6.6 28.5 11.8 28.7 11.6.2-.2.6-16.7 1-36.8l.7-36.5-27.9-11.7c-15.4-6.5-28.7-12-29.6-12.4-1.6-.6-1.7 2.1-1.5 36.6zM155.2 418.2c-1.8 1.8-1.6 19.2.2 20.7.9.8 4.8 1.1 11.2.9l9.9-.3v-22l-10-.3c-7-.2-10.4.1-11.3 1zM193.2 418.2c-1.4 1.4-1.7 18.5-.4 20.6.6.9 3.6 1.2 11.3 1l10.4-.3v-22l-10-.3c-7-.2-10.4.1-11.3 1zM230 422.5v5.6l11.3-.3 11.2-.3v-10l-11.2-.3-11.3-.3v5.6zM393 432.5v7.6l7.8-.3 7.7-.3.3-6.4c.2-4.5-.1-6.7-1-7.2-.7-.5-4.3-.9-8-.9H393v7.5zM424.2 426.2c-.7.7-1.2 2-1.2 3 0 1.6 1 1.8 8 1.8 7.8 0 8-.1 8-2.4 0-1.3-.7-2.7-1.6-3-2.8-1.1-12-.6-13.2.6zM302.7 501.7c-1.2 1.1-.8 7.8.5 9.1.7.7 3.1 1.2 5.5 1.2h4.3v-11h-4.8c-2.7 0-5.2.3-5.5.7zM354.7 501.7c-.4.3-.7 1.2-.7 2 0 .9 1.6 1.3 5.5 1.3 4.8 0 5.5-.2 5.5-2 0-1.7-.7-2-4.8-2-2.7 0-5.2.3-5.5.7z"/></svg>